<?xml version="1.0" encoding="UTF-8"?> <!-- Generator: Adobe Illustrator 22.0.1, SVG Export Plug-In . SVG Version: 6.00 Build 0) --> <svg xmlns="http://www.w3.org/2000/svg" xmlns:xlink="http://www.w3.org/1999/xlink" id="Слой_1" x="0px" y="0px" viewBox="0 0 286.5 49.8" style="enable-background:new 0 0 286.5 49.8;" xml:space="preserve"> <style type="text/css"> .st0{fill:#85B9E8;} .st1{fill:#2E2E2E;} </style> <g> <g> <path class="st0" d="M63.6,5.1C63.9,5,64,4.8,64.2,4.5c1.3-1.5,2.7-2.9,4.8-3c1.8-0.1,3.8,0.6,4.7,2.4c1,2.1-0.1,4.1-1.5,5.7 c-1,1.1-2.1,2.1-3.3,3c-1.1,0.8-2.3,2-3.7,2.2c-1.2,0.3-3.6-0.6-5.3-1.7c-1.6-1.1-3.4-2.3-4.3-4.1c-0.7-1.5,0-3.2,1.3-4 c1.4-1,3.4-0.8,5-0.2c0.5,0.2,1.1,0.4,1.6,0.3C63.5,5.1,63.6,5.1,63.6,5.1z"></path> <path class="st0" d="M25.5,28.5v11.6c0,2.6-1.7,4.5-4.1,4.5c-1.7,0-3.2-1-3.8-2.6c-1.7,1.7-4.2,2.7-6.9,2.7 c-5.1,0-8.6-3.3-8.6-8.2c0-5,3.6-8,9.7-8H17V28c0-2.2-1.4-3.4-3.8-3.4c-1.4,0-2.6,0.4-3.9,1.3c-1,0.7-1.5,0.9-2.3,0.9 c-2,0-3.6-1.7-3.6-3.7c0-1.3,0.6-2.6,1.8-3.6c2.1-1.8,5.3-2.8,8.9-2.8C21.4,16.6,25.5,20.9,25.5,28.5z M17,34.2V34h-4 c-1.4,0-2.3,0.7-2.3,2c0,1.3,0.9,2.1,2.5,2.1C15.4,38.1,17,36.6,17,34.2z"></path> <path class="st0" d="M54.6,27.5V40c0,2.7-1.8,4.7-4.3,4.7c-2.4,0-4.3-2-4.3-4.7V28.9c0-2.4-1.5-4-3.6-4c-2.1,0-3.6,1.6-3.6,4V40 c0,2.7-1.8,4.7-4.3,4.7c-2.4,0-4.3-2-4.3-4.7V21.3c0-2.7,1.8-4.7,4.2-4.7c1.7,0,3.1,1.1,3.8,2.7c1.7-1.7,4.2-2.7,6.8-2.7 C50.9,16.6,54.6,20.9,54.6,27.5z"></path> <path class="st0" d="M60.5,40V21.3c0-2.7,1.8-4.7,4.3-4.7c2.4,0,4.3,2,4.3,4.7V40c0,2.7-1.8,4.7-4.3,4.7 C62.3,44.7,60.5,42.7,60.5,40z"></path> <path class="st0" d="M76.3,40V13.1c0-2.7,1.8-4.7,4.3-4.7c2.4,0,4.3,2,4.3,4.7V40c0,2.7-1.8,4.7-4.3,4.7S76.3,42.7,76.3,40z"></path> <path class="st0" d="M116.6,30.6c0,7.8-6,14-13.5,14c-7.6,0-13.5-6.2-13.5-14c0-7.9,5.9-14,13.5-14 C110.6,16.6,116.6,22.8,116.6,30.6z M98.3,30.6c0,3.3,1.9,5.6,4.8,5.6c2.8,0,4.8-2.4,4.8-5.6c0-3.2-2-5.6-4.8-5.6 C100.3,25.1,98.3,27.3,98.3,30.6z"></path> <path class="st0" d="M145.1,21.1c0,0.8-0.2,1.5-0.7,2.6l-8.6,18.1c-0.8,1.8-2.3,2.8-4,2.8c-1.6,0-3.1-1-3.9-2.8l-8.6-18.1 c-0.5-1.1-0.7-1.8-0.7-2.6c0-2.4,1.9-4.4,4.1-4.4c1.6,0,2.9,0.7,3.7,2.6l5.5,11.8l5.5-11.8c0.8-1.8,2.1-2.6,3.7-2.6 C143.2,16.6,145.1,18.7,145.1,21.1z"></path> <path class="st0" d="M172.1,29.3v0.1c0,2.6-1.9,4.4-4.5,4.4h-11.9c0.9,2,2.7,3.1,5.5,3.1c1.4,0,3-0.3,4.3-0.9 c0.6-0.3,1-0.4,1.5-0.4c1.9,0,3.4,1.6,3.4,3.6c0,1.5-0.6,2.6-2.1,3.5c-2.1,1.3-4.7,2-7.4,2c-8,0-13.9-5.9-13.9-14 c0-8,5.6-14,13-14C167,16.6,172.1,22,172.1,29.3z M155.4,27.9h8.6c-0.1-2.3-1.8-4-4.1-4C157.7,23.8,156.1,25.4,155.4,27.9z"></path> </g> </g> <g> <path class="st1" d="M191.9,26h0.6c0.6-0.8,0.9-2,0.9-3.6v-0.8h3.1V26h0.7v1.8h-0.7v-1.2h-4v1.2h-0.6V26z M193.2,26h2.6v-3.9H194 v0.3C194,24,193.8,25.1,193.2,26z"></path> <path class="st1" d="M198.1,24c0-0.8,0.2-1.4,0.7-1.9s1.1-0.7,1.8-0.7c0.7,0,1.2,0.2,1.5,0.7c0.4,0.4,0.6,1,0.6,1.7 c0,0.1,0,0.2,0,0.3h-3.9c0,0.6,0.2,1.1,0.6,1.5c0.4,0.4,0.8,0.5,1.4,0.5c0.6,0,1.1-0.2,1.5-0.6l0.3,0.5c-0.2,0.2-0.5,0.4-0.9,0.5 c-0.3,0.1-0.7,0.2-1,0.2c-0.8,0-1.4-0.2-1.9-0.7C198.4,25.4,198.1,24.8,198.1,24z M198.9,23.5h3.2c0-0.5-0.2-0.9-0.4-1.2 s-0.6-0.4-1-0.4c-0.4,0-0.8,0.1-1.1,0.4C199.2,22.6,199,23,198.9,23.5z"></path> <path class="st1" d="M205.4,26.5v-4.4h-1.8v-0.6h4.3v0.6h-1.8v4.4H205.4z"></path> <path class="st1" d="M208.7,24c0-0.8,0.3-1.4,0.8-1.9c0.5-0.5,1.1-0.7,1.9-0.7c0.3,0,0.7,0.1,1,0.2c0.3,0.1,0.6,0.3,0.8,0.5 l-0.3,0.5c-0.2-0.2-0.4-0.3-0.7-0.5c-0.3-0.1-0.5-0.2-0.8-0.2c-0.6,0-1,0.2-1.4,0.6c-0.4,0.4-0.6,0.9-0.6,1.5 c0,0.6,0.2,1.1,0.6,1.4s0.8,0.6,1.4,0.6c0.3,0,0.6-0.1,0.9-0.2c0.3-0.1,0.5-0.3,0.7-0.5l0.3,0.5c-0.2,0.2-0.5,0.4-0.9,0.6 c-0.3,0.1-0.7,0.2-1.1,0.2c-0.8,0-1.4-0.2-1.9-0.7C209,25.4,208.7,24.8,208.7,24z"></path> <path class="st1" d="M214.7,26.5v-5h0.7v2.1h0.8l1.5-2.1h0.8l-1.8,2.4v0l2,2.6h-0.8l-1.7-2.3h-0.8v2.3H214.7z"></path> <path class="st1" d="M219.9,26.5v-5h0.7v3.3c0,0.5,0,0.7,0,0.8h0c0,0,0.2-0.3,0.5-0.8l2.5-3.3h0.6v5h-0.7v-3.3c0-0.1,0-0.2,0-0.3 c0-0.1,0-0.2,0-0.3c0-0.1,0-0.1,0-0.1h0c0,0,0,0.1-0.1,0.1c-0.1,0.1-0.1,0.2-0.2,0.3s-0.2,0.2-0.2,0.3l-2.5,3.3H219.9z"></path> <path class="st1" d="M225.7,24c0-0.8,0.2-1.4,0.7-1.9s1.1-0.7,1.8-0.7c0.7,0,1.2,0.2,1.5,0.7c0.4,0.4,0.5,1,0.5,1.7 c0,0.1,0,0.2,0,0.3h-3.9c0,0.6,0.2,1.1,0.6,1.5c0.4,0.4,0.8,0.5,1.4,0.5c0.6,0,1.1-0.2,1.5-0.6l0.3,0.5c-0.2,0.2-0.5,0.4-0.9,0.5 c-0.3,0.1-0.7,0.2-1,0.2c-0.8,0-1.4-0.2-1.9-0.7C226,25.4,225.7,24.8,225.7,24z M226.5,23.5h3.2c0-0.5-0.2-0.9-0.4-1.2 c-0.3-0.3-0.6-0.4-1-0.4c-0.4,0-0.8,0.1-1.1,0.4C226.8,22.6,226.6,23,226.5,23.5z"></path> <path class="st1" d="M235.9,26.5v-4.4H234v-0.6h4.3v0.6h-1.8v4.4H235.9z"></path> <path class="st1" d="M239.1,24c0-0.7,0.3-1.4,0.8-1.9c0.5-0.5,1.1-0.8,1.9-0.8s1.4,0.3,1.9,0.8s0.8,1.1,0.8,1.9 c0,0.8-0.3,1.4-0.8,1.9c-0.5,0.5-1.1,0.8-1.9,0.8s-1.4-0.3-1.9-0.8C239.4,25.4,239.1,24.8,239.1,24z M239.8,24 c0,0.6,0.2,1.1,0.6,1.5c0.4,0.4,0.8,0.6,1.4,0.6s1-0.2,1.4-0.6s0.6-0.9,0.6-1.5c0-0.6-0.2-1-0.6-1.4s-0.8-0.6-1.4-0.6 s-1,0.2-1.4,0.6C240,23,239.8,23.4,239.8,24z"></path> <path class="st1" d="M245.9,26.5v-5h1.8c0.5,0,0.9,0.1,1.2,0.3c0.3,0.2,0.4,0.5,0.4,0.9c0,0.6-0.3,0.9-0.8,1.1v0 c0.3,0.1,0.6,0.2,0.8,0.4c0.2,0.2,0.3,0.5,0.3,0.8c0,0.4-0.2,0.8-0.5,1c-0.3,0.3-0.8,0.4-1.3,0.4H245.9z M246.6,23.7h1.1 c0.3,0,0.6-0.1,0.8-0.2c0.2-0.1,0.3-0.4,0.3-0.6c0-0.5-0.4-0.8-1.1-0.8h-1V23.7z M246.6,26h1.1c0.4,0,0.7-0.1,0.9-0.2 c0.2-0.2,0.3-0.4,0.3-0.7c0-0.3-0.1-0.5-0.3-0.7c-0.2-0.2-0.5-0.2-0.9-0.2h-1.1V26z"></path> <path class="st1" d="M250.8,25.2c0-1.2,1-1.8,3.1-1.8h0.3v-0.1c0-0.9-0.4-1.3-1.2-1.3c-0.5,0-1,0.2-1.4,0.5l-0.3-0.5 c0.2-0.2,0.5-0.3,0.8-0.4c0.3-0.1,0.7-0.2,1-0.2c0.6,0,1.1,0.2,1.4,0.5c0.3,0.3,0.5,0.8,0.5,1.4v3.2h-0.7V26l0-0.4h0 c-0.1,0.3-0.4,0.6-0.7,0.8c-0.3,0.2-0.6,0.3-1,0.3c-0.5,0-0.9-0.1-1.2-0.4C251,26,250.8,25.7,250.8,25.2z M251.5,25.1 c0,0.3,0.1,0.5,0.3,0.7c0.2,0.2,0.5,0.3,0.8,0.3c0.5,0,0.8-0.2,1.1-0.6s0.4-0.8,0.4-1.3V24h-0.3c-0.2,0-0.4,0-0.6,0 c-0.2,0-0.4,0-0.6,0.1c-0.3,0-0.5,0.1-0.6,0.2s-0.3,0.2-0.4,0.3S251.5,24.9,251.5,25.1z"></path> <path class="st1" d="M256.6,28.5v-7h0.7V22l0,0.4h0c0.2-0.3,0.4-0.6,0.7-0.8c0.3-0.2,0.7-0.3,1.1-0.3c0.7,0,1.2,0.2,1.6,0.7 s0.6,1.1,0.6,1.9c0,0.8-0.2,1.4-0.6,1.9s-1,0.7-1.6,0.7c-0.4,0-0.7-0.1-1-0.3s-0.5-0.4-0.7-0.7h0c0,0.1,0,0.3,0,0.4v2.4H256.6z M257.3,24c0,0.5,0.1,1,0.4,1.4c0.3,0.4,0.7,0.6,1.2,0.6c0.5,0,0.8-0.2,1.2-0.5c0.3-0.4,0.5-0.9,0.5-1.5c0-0.6-0.1-1.1-0.4-1.5 s-0.7-0.6-1.2-0.6c-0.5,0-0.8,0.2-1.2,0.5C257.5,22.9,257.3,23.4,257.3,24z"></path> <path class="st1" d="M262.8,26.5v-5h0.7v1.9h1.1c0.5,0,0.9,0.1,1.3,0.4c0.3,0.2,0.5,0.6,0.5,1.2c0,0.5-0.2,0.8-0.5,1.1 c-0.3,0.3-0.7,0.4-1.3,0.4H262.8z M263.5,26h1c0.8,0,1.1-0.3,1.1-1c0-0.3-0.1-0.6-0.3-0.8c-0.2-0.2-0.5-0.3-0.8-0.3h-1V26z M267.2,26.5v-5h0.7v5H267.2z"></path> <path class="st1" d="M191.9,41h0.6c0.6-0.8,0.9-2,0.9-3.6v-0.8h3.1V41h0.7v1.8h-0.7v-1.2h-4v1.2h-0.6V41z M193.2,41h2.6v-3.9H194 v0.3C194,39,193.8,40.1,193.2,41z"></path> <path class="st1" d="M197.9,41.6V41c0.4-0.1,0.7-0.3,0.9-0.8s0.3-1.2,0.3-2.1v-1.5h3.1v5h-0.7v-4.4h-1.7V38c0,1.2-0.1,2.1-0.4,2.6 C199.1,41.2,198.6,41.5,197.9,41.6z"></path> <path class="st1" d="M203.6,41.5l1.2-1.7l0.2-0.3v0c-0.3-0.1-0.6-0.2-0.8-0.5c-0.2-0.3-0.3-0.6-0.3-1c0-0.5,0.2-0.9,0.5-1.1 c0.3-0.3,0.8-0.4,1.3-0.4h1.8v5h-0.7v-1.9h-1l-1.3,1.9H203.6z M205.7,39.1h1v-2h-1c-0.8,0-1.2,0.3-1.2,1c0,0.3,0.1,0.6,0.3,0.8 C205.1,39,205.4,39.1,205.7,39.1z"></path> <path class="st1" d="M212,41.5v-5h4.2v5h-0.7v-4.4h-2.8v4.4H212z"></path> <path class="st1" d="M217.8,42.8c0.2,0.2,0.4,0.2,0.6,0.2c0.4,0,0.7-0.3,1-0.8l0.3-0.7l-2.1-5h0.8l1.5,3.7l0.2,0.5h0 c0-0.2,0.1-0.4,0.2-0.5l1.4-3.7h0.7l-2.5,6.1c-0.1,0.3-0.3,0.6-0.6,0.8s-0.5,0.3-0.9,0.3c-0.2,0-0.3,0-0.5-0.1 c-0.2,0-0.3-0.1-0.3-0.1l-0.1-0.1L217.8,42.8z"></path> <path class="st1" d="M224.9,41.5v-4.4h-1.8v-0.6h4.3v0.6h-1.8v4.4H224.9z"></path> <path class="st1" d="M228.1,39c0-0.8,0.2-1.4,0.7-1.9s1.1-0.7,1.8-0.7c0.7,0,1.2,0.2,1.5,0.7c0.4,0.4,0.5,1,0.5,1.7 c0,0.1,0,0.2,0,0.3h-3.9c0,0.6,0.2,1.1,0.6,1.5c0.4,0.4,0.8,0.5,1.4,0.5c0.6,0,1.1-0.2,1.5-0.6l0.3,0.5c-0.2,0.2-0.5,0.4-0.9,0.5 c-0.3,0.1-0.7,0.2-1,0.2c-0.8,0-1.4-0.2-1.9-0.7C228.4,40.4,228.1,39.8,228.1,39z M228.9,38.5h3.2c0-0.5-0.2-0.9-0.4-1.2 c-0.3-0.3-0.6-0.4-1-0.4c-0.4,0-0.8,0.1-1.1,0.4C229.2,37.6,229,38,228.9,38.5z"></path> <path class="st1" d="M234.3,41.5v-5h0.7v4.4h2.2v-4.4h0.7v4.4h2.2v-4.4h0.7v5H234.3z"></path> <path class="st1" d="M242.1,39c0-0.8,0.2-1.4,0.7-1.9s1.1-0.7,1.8-0.7c0.7,0,1.2,0.2,1.5,0.7c0.4,0.4,0.5,1,0.5,1.7 c0,0.1,0,0.2,0,0.3h-3.9c0,0.6,0.2,1.1,0.6,1.5c0.4,0.4,0.8,0.5,1.4,0.5c0.6,0,1.1-0.2,1.5-0.6l0.3,0.5c-0.2,0.2-0.5,0.4-0.9,0.5 c-0.3,0.1-0.7,0.2-1,0.2c-0.8,0-1.4-0.2-1.9-0.7C242.3,40.4,242.1,39.8,242.1,39z M242.8,38.5h3.2c0-0.5-0.2-0.9-0.4-1.2 c-0.3-0.3-0.6-0.4-1-0.4c-0.4,0-0.8,0.1-1.1,0.4C243.1,37.6,242.9,38,242.8,38.5z"></path> <path class="st1" d="M247.9,39c0-0.8,0.3-1.4,0.8-1.9c0.5-0.5,1.1-0.7,1.9-0.7c0.3,0,0.7,0.1,1,0.2c0.3,0.1,0.6,0.3,0.8,0.5 l-0.4,0.5c-0.2-0.2-0.4-0.3-0.7-0.5c-0.3-0.1-0.5-0.2-0.8-0.2c-0.6,0-1,0.2-1.4,0.6c-0.4,0.4-0.6,0.9-0.6,1.5 c0,0.6,0.2,1.1,0.6,1.4c0.4,0.4,0.8,0.6,1.4,0.6c0.3,0,0.6-0.1,0.9-0.2c0.3-0.1,0.5-0.3,0.7-0.5l0.3,0.5c-0.2,0.2-0.5,0.4-0.9,0.6 c-0.3,0.1-0.7,0.2-1.1,0.2c-0.8,0-1.4-0.2-1.9-0.7C248.1,40.4,247.9,39.8,247.9,39z"></path> <path class="st1" d="M255.1,41.5v-4.4h-1.8v-0.6h4.3v0.6h-1.8v4.4H255.1z"></path> <path class="st1" d="M258.9,41.5v-5h1.8c0.5,0,0.9,0.1,1.2,0.3c0.3,0.2,0.4,0.5,0.4,0.9c0,0.6-0.3,0.9-0.8,1.1v0 c0.3,0.1,0.6,0.2,0.8,0.4c0.2,0.2,0.3,0.5,0.3,0.8c0,0.4-0.2,0.8-0.5,1c-0.3,0.3-0.8,0.4-1.3,0.4H258.9z M259.6,38.7h1.1 c0.3,0,0.6-0.1,0.8-0.2c0.2-0.1,0.3-0.4,0.3-0.6c0-0.5-0.4-0.8-1.1-0.8h-1V38.7z M259.6,41h1.1c0.4,0,0.7-0.1,0.9-0.2 c0.2-0.2,0.3-0.4,0.3-0.7c0-0.3-0.1-0.5-0.3-0.7c-0.2-0.2-0.5-0.2-0.9-0.2h-1.1V41z"></path> <path class="st1" d="M264.2,41.5v-5h0.7v3.3c0,0.5,0,0.7,0,0.8h0c0,0,0.2-0.3,0.5-0.8l2.5-3.3h0.6v5h-0.7v-3.3c0-0.1,0-0.2,0-0.3 c0-0.1,0-0.2,0-0.3c0-0.1,0-0.1,0-0.1h0c0,0,0,0.1-0.1,0.1c-0.1,0.1-0.1,0.2-0.2,0.3s-0.2,0.2-0.2,0.3l-2.5,3.3H264.2z"></path> <path class="st1" d="M270.4,41.5v-5h0.7v3.3c0,0.5,0,0.7,0,0.8h0c0,0,0.2-0.3,0.5-0.8l2.5-3.3h0.6v5H274v-3.3c0-0.1,0-0.2,0-0.3 c0-0.1,0-0.2,0-0.3c0-0.1,0-0.1,0-0.1h0c0,0,0,0.1-0.1,0.1c-0.1,0.1-0.1,0.2-0.2,0.3s-0.2,0.2-0.2,0.3l-2.5,3.3H270.4z M273.4,35.5 c-0.3,0.2-0.6,0.3-0.9,0.3c-0.4,0-0.7-0.1-0.9-0.3c-0.3-0.2-0.4-0.5-0.4-0.9v-0.2h0.6v0.1c0,0.2,0.1,0.4,0.2,0.5 c0.1,0.1,0.3,0.2,0.5,0.2s0.4-0.1,0.5-0.2c0.1-0.1,0.2-0.3,0.2-0.5v-0.1h0.6v0.2C273.8,35,273.7,35.3,273.4,35.5z"></path> </g> </svg> 