<?xml version="1.0" encoding="UTF-8"?> <!-- Generator: Adobe Illustrator 22.0.1, SVG Export Plug-In . SVG Version: 6.00 Build 0) --> <svg xmlns="http://www.w3.org/2000/svg" xmlns:xlink="http://www.w3.org/1999/xlink" id="Слой_1" x="0px" y="0px" viewBox="0 0 1920 67.9" style="enable-background:new 0 0 1920 67.9;" xml:space="preserve"> <style type="text/css"> .st0{clip-path:url(#SVGID_2_);fill:#F5FAFF;} </style> <g> <defs> <rect id="SVGID_1_" y="-151.7" width="1920" height="220"></rect> </defs> <clipPath id="SVGID_2_"> <use xlink:href="#SVGID_1_" style="overflow:visible;"></use> </clipPath> <path class="st0" d="M2759-2.1l-49.9,34.8c-31.5,22-78.8,24.8-114.4,6.7l-35.1-17.8c-28.4-14.4-65.5-14.8-94.4-1L2411,46.3 c-30.6,14.5-69.5,14.3-99.8-0.5L2260.9,21c-28.7-14.1-65.7-14.1-94.4,0l-50,24.5c-30.5,15-69.7,15.1-100.3,0.3l-53.3-25.8 c-28.1-13.6-64-13.8-92.4-0.5l-58.3,27.3c-30.3,14.2-68.7,14-98.7-0.5l-54.1-26.2c-28.3-13.7-64.5-13.8-92.9-0.2l-55.7,26.5 c-30.3,14.4-69,14.3-99.2-0.3l-53-25.6c-28.6-13.8-65.4-13.7-93.9,0.3l-50.8,24.9c-30.3,14.9-69.2,15.1-99.8,0.5L1058.8,20 c-28.4-13.5-64.6-13.4-92.9,0.2l-53.4,25.8c-30.4,14.7-69.4,14.7-99.8,0l-52.6-25.4c-28.6-13.8-65.4-13.7-93.9,0.3l-50.4,24.7 c-30.5,15-69.7,15.1-100.3,0.3L463,20.4c-28.5-13.8-64.9-13.8-93.4,0l-53.4,25.8C286,60.8,247.3,60.9,217,46.5L161.3,20 C132.9,6.5,96.7,6.6,68.5,20.3l-53,25.6c-30.6,14.8-69.9,14.7-100.3-0.3l-51.1-25.1c-28.2-13.8-64.3-14.1-92.9-0.7l-58,27.2 c-30.3,14.2-68.7,14-98.7-0.5l-53.4-25.8c-28.6-13.8-65.4-13.7-93.9,0.3l-50.8,24.9c-30.3,14.9-69.2,15.1-99.8,0.5L-738.6,20 c-28.4-13.5-64.6-13.4-92.9,0.2l-53.4,25.8c-30.4,14.7-69.4,14.7-99.8,0l-53.2-25.7c-28.4-13.7-64.7-13.8-93.1-0.1L-1235,70.2v4.7 h3994V-2.1z"></path> </g> </svg> 